name C:\Users\tom_v\MusculoskeletalSpecialization_revisited\Results\Case_14\motion.mot
datacolumns 32
datarows 14
range 0.14039858 0.21340584
endheader 
time	pelvis_tilt	pelvis_list	pelvis_rotation	pelvis_tx	pelvis_ty	pelvis_tz	hip_flexion_r	hip_adduction_r	hip_rotation_r	knee_angle_r	ankle_angle_r	subtalar_angle_r	mtp_angle_r	hip_flexion_l	hip_adduction_l	hip_rotation_l	knee_angle_l	ankle_angle_l	subtalar_angle_l	mtp_angle_l	lumbar_extension	lumbar_bending	lumbar_rotation	arm_flex_r	arm_add_r	arm_rot_r	elbow_flex_r	arm_flex_l	arm_add_l	arm_rot_l	elbow_flex_l	
          0.14039858	         -8.34892743	         -0.09288665	          0.93526591	          0.45559615	          0.95256643	          0.00241439	         12.43287035	          4.77491030	          5.63415034	        -36.79474188	         14.09912557	         -4.34013405	         23.88594756	         37.75736562	         -0.39980333	         -4.38836289	        -63.52249505	         15.09022635	          1.07120537	          2.02768374	        -11.10446966	          0.46172171	          1.72765321	         -2.53890890	        -25.55101258	         19.39976849	         66.55713918	         -4.97609020	         -7.87333268	         -9.42899333	         60.35440442	
          0.14601452	         -8.38600522	          0.08547054	          0.91841418	          0.47427526	          0.95429567	          0.00244868	         11.01671105	          4.32059587	          5.21537439	        -36.02491064	         12.61272515	         -3.68747026	         25.16838894	         38.80808593	         -0.12088946	         -4.38032281	        -62.68127090	         14.68746752	          0.61497087	          1.88914613	        -11.12772860	          0.07789695	          1.89367290	         -3.23413643	        -26.10563356	         19.39440937	         69.28847809	         -6.03659575	         -7.77127313	        -10.00636040	         63.19278341	
          0.15163047	         -8.42050822	          0.26173562	          0.90144612	          0.49306332	          0.95600267	          0.00247734	          9.60882018	          3.86648652	          4.78106156	        -35.25399789	         10.98321929	         -3.02524951	         26.45943431	         39.78625002	          0.15732154	         -4.34892449	        -61.72588806	         14.13801741	          0.16641165	          1.76053755	        -11.13784880	         -0.30506712	          2.05337864	         -3.89121275	        -26.59838406	         19.38172685	         71.81246216	         -7.03826328	         -7.68688653	        -10.50920469	         65.83095706	
          0.15724641	         -8.45205285	          0.43486589	          0.88475713	          0.51195366	          0.95766173	          0.00250014	          8.21708604	          3.41765416	          4.34314733	        -34.49690147	          9.21452632	         -2.35663179	         27.75019345	         40.69117188	          0.43479211	         -4.28986692	        -60.66028424	         13.44971340	         -0.27423836	          1.64086431	        -11.13540710	         -0.68524593	          2.20689596	         -4.50633110	        -27.02816332	         19.36763774	         74.11620401	         -7.97377676	         -7.62090020	        -10.94729925	         68.25056731	
          0.16286235	         -8.48057785	          0.60544902	          0.86861736	          0.53092881	          0.95924560	          0.00251627	          6.85810844	          2.97724504	          3.91381240	        -33.78147682	          7.31045578	         -1.68476409	         29.02649775	         41.52364351	          0.71271008	         -4.20040279	        -59.48809170	         12.63224051	         -0.70739544	          1.52928337	        -11.12283535	         -1.06225577	          2.35327592	         -5.07504204	        -27.39463556	         19.35575101	         76.19197344	         -8.83651331	         -7.57442616	        -11.32905247	         70.43931505	
          0.16847829	         -8.50600620	          0.76986646	          0.85318140	          0.54996433	          0.96072729	          0.00252750	          5.55326822	          2.55169155	          3.50427041	        -33.14635661	          5.36121430	         -0.97706125	         30.12728076	         42.28667027	          0.98708226	         -4.07866742	        -58.21605577	         11.69682145	         -1.13305898	          1.42507714	        -11.10402400	         -1.43137307	          2.49145122	         -5.59229513	        -27.69851904	         19.34794031	         78.03551868	         -9.62086340	         -7.54792438	        -11.66217692	         72.38982648	
          0.17409424	         -8.52839193	          0.92393412	          0.83800325	          0.56903675	          0.96208654	          0.00253600	          4.32393310	          2.14343191	          3.11642580	        -32.62669230	          3.43797317	         -0.20430107	         30.92232745	         42.98148974	          1.25367672	         -3.92261720	        -56.84873321	         10.65579939	         -1.55093044	          1.32774847	        -11.08290226	         -1.78756025	          2.62045600	         -6.05316275	        -27.94008418	         19.34462875	         79.64226680	        -10.32209973	         -7.54115635	        -11.95336927	         74.09612808	
          0.17971018	         -8.54774093	          1.06611009	          0.82208393	          0.58813304	          0.96331397	          0.00254166	          3.18649772	          1.75370883	          2.75481461	        -32.24375458	          1.53579190	          0.62189349	         31.39980433	         43.60095486	          1.51080980	         -3.73223044	        -55.37919283	          9.52288392	         -1.96117010	          1.23701874	        -11.06169052	         -2.12783147	          2.73908178	         -6.45396281	        -28.11808448	         19.34511872	         81.00539712	        -10.93654044	         -7.55372335	        -12.20742044	         75.54928174	
          0.18532612	         -8.56407495	          1.19588057	          0.80356184	          0.60724714	          0.96440516	          0.00254206	          2.15140762	          1.38116986	          2.42074542	        -32.00411320	         -0.38241460	          1.48489575	         31.60509226	         44.13478013	          1.75779840	         -3.50810008	        -53.80281618	          8.31379737	         -2.36307210	          1.15237922	        -11.04150349	         -2.44959339	          2.84653045	         -6.79238754	        -28.23130202	         19.34771085	         82.11858382	        -11.46202725	         -7.58458339	        -12.42792120	         76.74037171	
          0.19094207	         -8.57731011	          1.31289972	          0.78025094	          0.62637536	          0.96535583	          0.00253498	          1.22838414	          1.02436941	          2.11520637	        -31.91509191	         -2.34286265	          2.37088028	         31.56795737	         44.57452824	          1.99418139	         -3.25058707	        -52.12646882	          7.04574375	         -2.75646411	          1.07358139	        -11.02298342	         -2.75044456	          2.94182704	         -7.06615076	        -28.27910545	         19.35138546	         82.97677546	        -11.89797525	         -7.63248295	        -12.61817790	         77.66310000	
          0.19655801	         -8.58726000	          1.41698346	          0.74980440	          0.64551504	          0.96616124	          0.00251792	          0.42746723	          0.68121551	          1.83845098	        -31.98502190	         -4.36821537	          3.27033559	         31.31032142	         44.91373678	          2.21964592	         -2.95997489	        -50.36373326	          5.73801125	         -3.14089157	          1.00032617	        -11.00633568	         -3.02814672	          3.02407967	         -7.27277628	        -28.26174583	         19.35606764	         83.57595025	        -12.24455816	         -7.69595811	        -12.78089839	         78.31295597	
          0.20217395	         -8.59363067	          1.50827664	          0.71045844	          0.66466596	          0.96681482	          0.00248833	         -0.24504015	          0.34932431	          1.59086612	        -32.21642876	         -6.46981243	          4.17618088	         30.83419391	         45.14972876	          2.43402550	         -2.63777421	        -48.53585085	          4.41225226	         -3.51592194	          0.93233197	        -10.99115669	         -3.28113591	          3.09239529	         -7.41051534	        -28.17981131	         19.36181918	         83.91293119	        -12.50255050	         -7.77372230	        -12.91798210	         78.68739348	
          0.20778990	         -8.59597612	          1.58767222	          0.66096849	          0.68383114	          0.96730533	          0.00244280	         -0.78842692	          0.02592468	          1.37138394	        -32.60547748	         -8.64142041	          5.07710570	         30.11656210	         45.28496202	          2.63832748	         -2.28594172	        -46.67430412	          3.09241745	         -3.88102986	          0.86948230	        -10.97618709	         -3.50881665	          3.14653178	         -7.47922533	        -28.03490980	         19.36879879	         83.98647687	        -12.67320404	         -7.86460596	        -13.03032226	         78.78603565	
          0.21340584	         -8.59368921	          1.65757427	          0.60121302	          0.70301688	          0.96761803	          0.00237947	         -1.20546542	         -0.29023698	          1.17646706	        -33.14334145	        -10.87530008	          5.93759452	         29.12778133	         45.32460822	          2.83663093	         -1.90507706	        -44.81719569	          1.80430355	         -4.23566431	          0.81176783	        -10.95920201	         -3.71318268	          3.18667828	         -7.48041102	        -27.82841025	         19.37718705	         83.79599038	        -12.75761168	         -7.96868022	        -13.11719700	         78.61030223	
